<?xml version="1.0" encoding="UTF-8" standalone="no"?><!DOCTYPE svg PUBLIC "-//W3C//DTD SVG 1.1//EN" "http://www.w3.org/Graphics/SVG/1.1/DTD/svg11.dtd"><svg width="100%" height="100%" viewBox="0 0 1280 720" version="1.1" xmlns="http://www.w3.org/2000/svg" xmlns:xlink="http://www.w3.org/1999/xlink" xml:space="preserve" style="fill-rule:evenodd;clip-rule:evenodd;stroke-linejoin:round;stroke-miterlimit:1.41421;"><path d="M743.459,260.416c-0.001,-1.321 -0.047,-2.612 -0.137,-3.873c-0.091,-1.261 -0.287,-2.432 -0.588,-3.513c-0.301,-1.081 -0.767,-2.012 -1.399,-2.792c-0.631,-0.78 -1.487,-1.32 -2.568,-1.62c-0.661,-0.18 -1.352,-0.329 -2.073,-0.449c-0.72,-0.12 -1.411,-0.209 -2.072,-0.269c-0.36,0 -0.63,-0.15 -0.811,-0.45c-0.18,-0.3 -0.271,-0.63 -0.271,-0.99c0,-0.361 0.09,-0.691 0.27,-0.992c0.18,-0.3 0.45,-0.45 0.81,-0.451c2.042,-0.001 3.874,0.058 5.496,0.177c1.621,0.119 3.513,0.178 5.675,0.176c2.463,-0.001 4.895,-0.048 7.297,-0.14c2.403,-0.092 4.835,-0.168 7.297,-0.23c4.925,-0.003 9.475,0.774 13.65,2.333c4.175,1.559 7.765,3.733 10.77,6.524c3.005,2.791 5.364,6.122 7.079,9.995c1.714,3.873 2.573,8.091 2.576,12.656c0.003,5.045 -0.805,9.429 -2.424,13.154c-1.619,3.725 -3.839,6.834 -6.66,9.329c-2.821,2.494 -6.168,4.343 -10.041,5.547c-3.873,1.204 -8.062,1.807 -12.566,1.81c-2.703,0.002 -5.33,-0.116 -7.883,-0.355c-2.552,-0.238 -4.85,-0.357 -6.892,-0.356c-1.261,0.001 -2.402,0.017 -3.423,0.048c-1.021,0.03 -2.012,0.076 -2.973,0.137c-0.961,0.061 -1.937,0.151 -2.928,0.272c-0.99,0.121 -2.086,0.242 -3.287,0.363c-0.361,0.06 -0.646,-0.06 -0.857,-0.36c-0.21,-0.3 -0.345,-0.631 -0.406,-0.991c-0.06,-0.36 0.015,-0.721 0.225,-1.081c0.21,-0.361 0.555,-0.571 1.035,-0.631c1.442,-0.181 2.673,-0.438 3.694,-0.769c1.02,-0.331 1.861,-0.797 2.521,-1.398c0.66,-0.601 1.14,-1.382 1.44,-2.343c0.299,-0.961 0.449,-2.222 0.448,-3.784l-0.024,-34.684Zm9.839,28.461c0.002,3.003 0.139,5.391 0.41,7.162c0.272,1.772 0.798,3.108 1.58,4.008c0.781,0.9 1.907,1.485 3.379,1.754c1.472,0.27 3.439,0.403 5.901,0.402c2.703,-0.002 5.18,-0.574 7.431,-1.717c2.252,-1.143 4.187,-2.81 5.807,-5.004c1.62,-2.193 2.88,-4.881 3.779,-8.065c0.898,-3.184 1.346,-6.848 1.343,-10.992c-0.002,-4.384 -0.456,-8.272 -1.359,-11.665c-0.903,-3.393 -2.376,-6.245 -4.42,-8.555c-2.043,-2.311 -4.762,-4.051 -8.156,-5.22c-3.394,-1.169 -7.554,-1.752 -12.479,-1.748c-1.201,0.001 -2.041,0.211 -2.522,0.632c-0.48,0.421 -0.719,1.232 -0.719,2.433l0.025,36.575Z" style="fill-rule:nonzero;"/><path d="M820.391,242.917c2.645,-0.026 5.087,0.273 7.327,0.897c2.24,0.625 4.453,1.456 6.638,2.492c0.65,0.288 1.255,0.561 1.816,0.82c0.561,0.259 1.047,0.387 1.459,0.383c0.94,-0.01 1.552,-0.574 1.835,-1.694c0.057,-0.235 0.246,-0.414 0.568,-0.534c0.322,-0.121 0.645,-0.168 0.969,-0.142c0.323,0.026 0.603,0.097 0.839,0.212c0.237,0.115 0.327,0.291 0.27,0.526c-0.226,0.943 -0.378,1.915 -0.456,2.915c-0.079,1 -0.113,2.029 -0.102,3.087c0.016,1.646 0.15,3.291 0.401,4.934c0.251,1.644 0.503,3.346 0.756,5.107c0.002,0.235 -0.128,0.428 -0.391,0.577c-0.263,0.15 -0.586,0.241 -0.968,0.274c-0.381,0.033 -0.749,-0.007 -1.103,-0.121c-0.354,-0.114 -0.562,-0.318 -0.623,-0.611c-1.522,-5.276 -3.941,-9.147 -7.257,-11.613c-3.316,-2.466 -7.473,-3.674 -12.469,-3.625c-3.88,0.038 -7.075,0.893 -9.587,2.564c-2.511,1.67 -4.503,3.821 -5.976,6.451c-1.474,2.631 -2.489,5.521 -3.046,8.672c-0.556,3.151 -0.82,6.225 -0.791,9.223c0.033,3.291 0.418,6.58 1.155,9.864c0.738,3.285 1.914,6.242 3.527,8.872c1.613,2.629 3.706,4.769 6.28,6.419c2.573,1.65 5.682,2.458 9.326,2.422c2.822,-0.028 5.347,-0.303 7.576,-0.824c2.228,-0.522 4.1,-1.466 5.615,-2.833c1.865,-1.723 3.343,-3.781 4.437,-6.172c1.093,-2.392 1.86,-5.089 2.301,-8.091c0.055,-0.412 0.243,-0.679 0.565,-0.8c0.323,-0.12 0.66,-0.138 1.014,-0.054c0.354,0.085 0.678,0.244 0.975,0.476c0.296,0.232 0.416,0.466 0.359,0.702c-0.165,1.177 -0.271,2.339 -0.318,3.486c-0.048,1.147 -0.066,2.308 -0.054,3.484c0.02,1.998 0.113,4.04 0.281,6.125c0.167,2.086 0.321,4.274 0.461,6.565c0.003,0.353 -0.112,0.619 -0.345,0.797c-0.233,0.179 -0.512,0.284 -0.835,0.317c-0.323,0.033 -0.632,-0.023 -0.927,-0.167c-0.295,-0.144 -0.474,-0.363 -0.536,-0.656c-0.122,-0.528 -0.333,-1.04 -0.632,-1.537c-0.299,-0.497 -0.685,-0.905 -1.158,-1.223c-0.474,-0.319 -1.034,-0.475 -1.68,-0.469c-0.588,0.006 -1.262,0.218 -2.022,0.637c-1.287,0.718 -2.53,1.333 -3.73,1.845c-1.2,0.511 -2.416,0.92 -3.647,1.226c-1.232,0.306 -2.523,0.524 -3.874,0.655c-1.35,0.131 -2.819,0.204 -4.406,0.22c-10.405,0.102 -18.145,-2.423 -23.222,-7.576c-5.077,-5.152 -7.663,-12.578 -7.759,-22.277c-0.051,-5.173 0.698,-9.751 2.246,-13.734c1.548,-3.983 3.705,-7.341 6.471,-10.072c2.765,-2.731 6.066,-4.807 9.903,-6.226c3.836,-1.419 8.018,-2.151 12.544,-2.195Z" style="fill-rule:nonzero;"/><path d="M781.475,301.393c-8.425,11.112 -16.415,20.933 -23.972,29.461c-7.558,8.529 -15.61,15.959 -24.158,22.291c-8.549,6.331 -17.964,11.952 -28.247,16.863c-10.282,4.91 -22.485,9.432 -36.608,13.567c-9.911,17.057 -20.69,33.662 -32.335,49.814c-11.645,16.152 -24.468,30.431 -38.467,42.836c-13.999,12.405 -29.547,22.355 -46.644,29.849c-17.096,7.495 -36.175,11.242 -57.236,11.242c-6.937,0 -13.999,-0.839 -21.184,-2.519c-7.186,-1.68 -13.752,-4.329 -19.698,-7.947c-5.947,-3.618 -10.779,-8.399 -14.495,-14.343c-3.717,-5.945 -5.575,-13.181 -5.575,-21.709c0,-11.63 3.469,-21.515 10.406,-29.656c6.938,-8.141 16.044,-14.86 27.318,-20.158c11.273,-5.298 24.034,-9.562 38.281,-12.792c14.247,-3.231 28.618,-6.009 43.113,-8.335c14.494,-2.326 28.494,-4.329 41.997,-6.009c13.504,-1.68 25.211,-3.682 35.122,-6.008c10.407,-18.349 20.07,-36.44 28.99,-54.272c8.92,-17.832 17.902,-35.018 26.945,-51.558c9.044,-16.54 18.46,-32.305 28.247,-47.294c9.787,-14.989 20.813,-28.88 33.078,-41.673c12.265,-12.793 26.078,-24.358 41.44,-34.695c15.362,-10.338 33.202,-19.125 53.519,-26.361l0,-0.775c-12.141,0 -26.759,0.323 -43.856,0.969c-17.096,0.646 -34.998,2.197 -53.705,4.652c-18.707,2.455 -37.228,6.009 -55.563,10.66c-18.336,4.652 -34.813,10.919 -49.431,18.802c-14.619,7.882 -26.45,17.638 -35.494,29.268c-9.044,11.629 -13.566,25.714 -13.566,42.254c0,12.922 2.973,22.936 8.92,30.043c5.947,7.107 14.867,10.661 26.76,10.661c6.442,0 12.636,-1.357 18.583,-4.07c5.946,-2.714 11.336,-6.526 16.167,-11.436c4.832,-4.911 8.672,-10.661 11.522,-17.251c2.849,-6.59 4.274,-13.891 4.274,-21.902c0,-3.619 -0.372,-7.237 -1.115,-10.855c-0.744,-3.618 -1.859,-7.107 -3.345,-10.467l3.716,-1.162c1.487,3.101 2.726,6.654 3.717,10.66c0.991,4.006 1.487,8.205 1.487,12.599c0,8.528 -1.735,16.669 -5.204,24.422c-3.468,7.753 -8.238,14.473 -14.309,20.158c-6.07,5.686 -13.317,10.208 -21.742,13.568c-8.424,3.36 -17.716,5.04 -27.874,5.04c-7.681,0 -14.743,-1.293 -21.185,-3.877c-6.442,-2.584 -12.017,-6.073 -16.725,-10.467c-4.708,-4.393 -8.362,-9.691 -10.964,-15.893c-2.602,-6.203 -3.902,-12.922 -3.902,-20.159c0,-13.18 3.221,-24.809 9.663,-34.889c6.442,-10.079 14.99,-18.93 25.644,-26.554c10.655,-7.624 22.92,-14.149 36.795,-19.576c13.875,-5.428 28.308,-9.95 43.299,-13.568c14.99,-3.619 29.856,-6.526 44.599,-8.723c14.743,-2.196 28.432,-3.876 41.069,-5.039c12.636,-1.163 23.538,-1.874 32.706,-2.132c9.168,-0.259 15.61,-0.388 19.326,-0.388c17.097,0 31.22,-0.646 42.37,-1.938c11.15,-1.292 20.565,-1.938 28.246,-1.938c1.982,0 3.779,0.452 5.389,1.356c1.611,0.905 2.416,2.391 2.416,4.458c0,2.068 -1.053,3.554 -3.159,4.458c-2.106,0.905 -6.256,1.357 -12.451,1.357c-3.964,0 -7.867,-0.129 -11.707,-0.387c-3.841,-0.259 -7.743,-0.517 -11.707,-0.776c-13.628,2.843 -26.574,9.498 -38.839,19.964c-12.265,10.467 -23.972,23.131 -35.122,37.991c-11.15,14.86 -21.742,31.141 -31.777,48.844c-10.035,17.703 -19.451,35.148 -28.247,52.334c-8.796,17.186 -17.096,33.273 -24.901,48.263c-7.805,14.989 -15.052,27.394 -21.742,37.215l0.371,-0.388l0.744,0.775c12.884,-3.876 24.158,-8.205 33.821,-12.986c9.663,-4.781 18.521,-10.273 26.574,-16.476c8.053,-6.202 15.795,-13.374 23.229,-21.514c7.433,-8.141 15.362,-17.639 23.786,-28.493l2.602,2.714Zm-317.4,171.731c0,12.405 3.655,22.096 10.965,29.074c7.309,6.978 16.91,10.467 28.803,10.467c10.159,0 19.636,-1.939 28.432,-5.815c8.796,-3.877 16.911,-9.046 24.344,-15.506c7.434,-6.461 14.371,-13.827 20.813,-22.097c6.442,-8.27 12.513,-16.863 18.212,-25.779c5.699,-8.916 11.15,-17.832 16.353,-26.748c5.203,-8.916 10.159,-17.121 14.866,-24.616c-6.194,1.809 -14.556,3.489 -25.087,5.039c-10.53,1.551 -21.804,3.36 -33.821,5.428c-12.017,2.067 -24.22,4.716 -36.609,7.946c-12.388,3.231 -23.538,7.495 -33.449,12.793c-9.911,5.298 -18.026,12.017 -24.344,20.158c-6.318,8.141 -9.478,18.026 -9.478,29.656Z" style="fill-rule:nonzero;"/></svg>