<?xml version="1.0" encoding="UTF-8" standalone="no"?>
<!-- Created with Inkscape (http://www.inkscape.org/) -->

<svg
   xmlns:dc="http://purl.org/dc/elements/1.1/"
   xmlns:cc="http://creativecommons.org/ns#"
   xmlns:rdf="http://www.w3.org/1999/02/22-rdf-syntax-ns#"
   xmlns:svg="http://www.w3.org/2000/svg"
   xmlns="http://www.w3.org/2000/svg"
   xmlns:sodipodi="http://sodipodi.sourceforge.net/DTD/sodipodi-0.dtd"
   xmlns:inkscape="http://www.inkscape.org/namespaces/inkscape"
   width="135.46667mm"
   height="18.071209mm"
   viewBox="0 0 135.46667 18.071209"
   version="1.1"
   id="svg1056"
   inkscape:version="0.92.1 r15371"
   sodipodi:docname="nova logo.svg">
  <defs
     id="defs1050">
    <clipPath
       clipPathUnits="userSpaceOnUse"
       id="clipPath40">
      <path
         d="m 287.832,373.124 h 216.38 v 28.865 h -216.38 z"
         id="path38"
         inkscape:connector-curvature="0" />
    </clipPath>
  </defs>
  <sodipodi:namedview
     id="base"
     pagecolor="#ffffff"
     bordercolor="#666666"
     borderopacity="1.0"
     inkscape:pageopacity="0.0"
     inkscape:pageshadow="2"
     inkscape:zoom="0.35"
     inkscape:cx="-39.71428"
     inkscape:cy="-31.563975"
     inkscape:document-units="mm"
     inkscape:current-layer="layer1"
     showgrid="false"
     fit-margin-top="0"
     fit-margin-left="0"
     fit-margin-right="0"
     fit-margin-bottom="0"
     inkscape:window-width="1600"
     inkscape:window-height="838"
     inkscape:window-x="-8"
     inkscape:window-y="-8"
     inkscape:window-maximized="1" />
  <metadata
     id="metadata1053">
    <rdf:RDF>
      <cc:Work
         rdf:about="">
        <dc:format>image/svg+xml</dc:format>
        <dc:type
           rdf:resource="http://purl.org/dc/dcmitype/StillImage" />
        <dc:title></dc:title>
      </cc:Work>
    </rdf:RDF>
  </metadata>
  <g
     inkscape:label="Layer 1"
     inkscape:groupmode="layer"
     id="layer1"
     transform="translate(12.548811,-122.41082)">
    <g
       id="g30"
       transform="matrix(0.6260617,0,0,-0.6260617,61.411432,130.34705)">
      <path
         d="M 0,0 H -1.991 L -5.814,6.701 H -5.872 V 0 h -1.803 v 9.972 h 2.515 l 3.328,-5.858 h 0.03 V 9.972 H 0 Z"
         style="fill:#14662f;fill-opacity:1;fill-rule:nonzero;stroke:none"
         id="path32"
         inkscape:connector-curvature="0" />
    </g>
    <g
       transform="matrix(0.6260617,0,0,-0.6260617,-192.74959,374.08074)"
       id="g34">
      <g
         id="g36"
         clip-path="url(#clipPath40)">
        <g
           id="g42"
           transform="translate(409.4567,393.2372)">
          <path
             d="m 0,0 c 0,-0.843 -0.015,-2.646 1.206,-2.646 1.207,0 1.265,1.454 1.265,2.341 0,0.581 -0.029,1.279 -0.232,1.831 C 2.064,2.006 1.715,2.195 1.221,2.195 0.072,2.195 0,0.843 0,0 m 4.768,-0.291 c 0,-2.107 -1.381,-3.779 -3.562,-3.779 -2.267,0 -3.503,1.715 -3.503,3.852 0,2.152 1.25,3.823 3.503,3.823 2.311,0 3.562,-1.715 3.562,-3.896"
             style="fill:#14662f;fill-opacity:1;fill-rule:nonzero;stroke:none"
             id="path44"
             inkscape:connector-curvature="0" />
        </g>
        <g
           id="g46"
           transform="translate(417.2342,396.6971)">
          <path
             d="m 0,0 v -1.381 h 0.029 c 0.218,0.785 0.654,1.599 1.584,1.526 L 1.977,0.117 V -2.021 C 0.349,-1.933 0.145,-3.256 0.145,-4.565 V -7.384 H -1.991 V 0 Z"
             style="fill:#14662f;fill-opacity:1;fill-rule:nonzero;stroke:none"
             id="path48"
             inkscape:connector-curvature="0" />
        </g>
        <g
           id="g50"
           transform="translate(420.0103,395.011)">
          <path
             d="m 0,0 v 1.701 h 1.294 l 0.189,2.165 1.86,0.146 V 1.701 H 4.928 V 0 H 3.343 v -2.936 c 0,-0.858 0,-1.207 1.032,-1.163 L 5.044,-4.07 V -5.684 L 4.899,-5.713 c -0.407,-0.058 -0.8,-0.131 -1.193,-0.131 -0.609,0 -1.424,0.087 -1.904,0.48 -0.596,0.494 -0.596,1.381 -0.596,2.108 V 0 Z"
             style="fill:#14662f;fill-opacity:1;fill-rule:nonzero;stroke:none"
             id="path52"
             inkscape:connector-curvature="0" />
        </g>
        <g
           id="g54"
           transform="translate(432.3348,389.3126)">
          <path
             d="m 0,0 h -2.137 v 3.983 c 0,0.639 0.073,1.846 -0.857,1.846 -0.393,0 -0.843,-0.189 -1.018,-0.552 C -4.2,4.884 -4.2,4.419 -4.2,3.983 V 0 H -6.337 V 9.972 H -4.2 V 6.367 h 0.028 c 0.277,0.741 1.12,1.163 1.919,1.163 0.683,0 1.41,-0.233 1.846,-0.8 C 0.044,6.149 0,5.408 0,4.696 Z"
             style="fill:#14662f;fill-opacity:1;fill-rule:nonzero;stroke:none"
             id="path56"
             inkscape:connector-curvature="0" />
        </g>
        <g
           id="g58"
           transform="translate(438.1344,393.9062)">
          <path
             d="M 0,0 C -0.043,0.8 -0.305,1.541 -1.235,1.541 -2.18,1.541 -2.544,0.843 -2.616,0 Z m -2.601,-1.265 -0.015,-0.364 c 0,-0.871 0.494,-1.583 1.424,-1.583 0.654,0 1.309,0.479 1.309,1.162 l 1.977,-0.145 c 0,-0.364 -0.858,-2.544 -3.358,-2.544 -2.21,0 -3.649,1.541 -3.649,3.736 0,2.18 1.294,3.939 3.591,3.939 1.032,0 2.093,-0.465 2.703,-1.308 0.611,-0.843 0.77,-1.89 0.756,-2.893 z"
             style="fill:#14662f;fill-opacity:1;fill-rule:nonzero;stroke:none"
             id="path60"
             inkscape:connector-curvature="0" />
        </g>
        <g
           id="g62"
           transform="translate(443.3241,396.6971)">
          <path
             d="m 0,0 v -1.381 h 0.03 c 0.217,0.785 0.653,1.599 1.583,1.526 L 1.977,0.117 V -2.021 C 0.349,-1.933 0.145,-3.256 0.145,-4.565 V -7.384 H -1.991 V 0 Z"
             style="fill:#14662f;fill-opacity:1;fill-rule:nonzero;stroke:none"
             id="path64"
             inkscape:connector-curvature="0" />
        </g>
        <g
           id="g66"
           transform="translate(447.9321,396.6971)">
          <path
             d="m 0,0 v -1.25 h 0.029 c 0.436,0.945 1.047,1.395 2.122,1.395 0.698,0 1.381,-0.218 1.818,-0.814 0.406,-0.552 0.406,-1.482 0.406,-2.151 V -7.384 H 2.239 v 3.968 c 0,0.756 0.101,1.861 -0.974,1.861 -0.378,0 -0.727,-0.219 -0.902,-0.553 C 0.145,-2.529 0.116,-2.951 0.116,-3.416 V -7.384 H -2.02 V 0 Z"
             style="fill:#14662f;fill-opacity:1;fill-rule:nonzero;stroke:none"
             id="path68"
             inkscape:connector-curvature="0" />
        </g>
        <g
           id="g70"
           transform="translate(462.6272,389.3126)">
          <path
             d="m 0,0 h -2.515 l -2.994,9.972 h 2.486 l 2.006,-7.123 2.063,7.123 h 1.963 z"
             style="fill:#14662f;fill-opacity:1;fill-rule:nonzero;stroke:none"
             id="path72"
             inkscape:connector-curvature="0" />
        </g>
        <path
           d="m 468.602,389.313 h -2.137 v 7.384 h 2.137 z m 0,8.053 h -2.137 v 2.064 h 2.137 z"
           style="fill:#14662f;fill-opacity:1;fill-rule:nonzero;stroke:none"
           id="path74"
           inkscape:connector-curvature="0" />
        <g
           id="g76"
           transform="translate(472.0575,396.6971)">
          <path
             d="m 0,0 v -1.381 h 0.029 c 0.218,0.785 0.654,1.599 1.585,1.526 L 1.977,0.117 V -2.021 C 0.349,-1.933 0.145,-3.256 0.145,-4.565 V -7.384 H -1.991 V 0 Z"
             style="fill:#14662f;fill-opacity:1;fill-rule:nonzero;stroke:none"
             id="path78"
             inkscape:connector-curvature="0" />
        </g>
        <g
           id="g80"
           transform="translate(477.014,394.5607)">
          <path
             d="m 0,0 c 0,-0.727 0.465,-1.12 1.178,-1.12 0.697,0 1.278,0.378 1.278,1.134 0,0.741 -0.61,1.09 -1.278,1.09 C 0.494,1.104 0,0.698 0,0 M 0.828,-5.248 -0.32,-5.205 C -0.581,-5.306 -0.785,-5.51 -0.785,-5.8 c 0,-0.349 0.233,-0.509 0.538,-0.596 0.465,-0.131 1.134,-0.145 1.599,-0.145 0.523,0 2.006,-0.044 2.006,0.712 0,0.392 -0.48,0.479 -0.785,0.508 z m -0.756,3.053 c -0.203,-0.117 -0.363,-0.291 -0.363,-0.538 0,-0.305 0.146,-0.48 0.422,-0.567 0.378,-0.102 1.163,-0.131 1.584,-0.145 l 0.93,-0.044 C 3.939,-3.562 5.393,-3.838 5.393,-5.452 5.393,-6.44 4.68,-7.108 3.837,-7.458 3.038,-7.792 1.991,-7.85 1.119,-7.85 c -1.177,0 -3.808,0.044 -3.808,1.716 0,0.755 0.611,1.191 1.279,1.336 -0.567,0.276 -0.945,0.669 -0.945,1.324 0,0.915 0.742,1.336 1.483,1.642 -0.8,0.306 -1.308,0.916 -1.308,1.803 0,1.787 1.947,2.311 3.386,2.311 0.669,0 1.323,-0.102 1.963,-0.32 0.145,1.12 0.567,1.439 1.671,1.439 L 5.436,3.343 V 1.962 C 5.247,1.991 5.058,2.034 4.869,2.034 4.462,2.034 4.07,1.846 4.012,1.395 4.419,0.944 4.593,0.581 4.593,-0.044 c 0,-1.744 -1.875,-2.253 -3.285,-2.253 z"
             style="fill:#14662f;fill-opacity:1;fill-rule:nonzero;stroke:none"
             id="path82"
             inkscape:connector-curvature="0" />
        </g>
        <path
           d="m 485.096,389.313 h -2.137 v 7.384 h 2.137 z m 0,8.053 h -2.137 v 2.064 h 2.137 z"
           style="fill:#14662f;fill-opacity:1;fill-rule:nonzero;stroke:none"
           id="path84"
           inkscape:connector-curvature="0" />
        <g
           id="g86"
           transform="translate(488.4537,396.6971)">
          <path
             d="m 0,0 v -1.25 h 0.029 c 0.436,0.945 1.047,1.395 2.122,1.395 0.698,0 1.381,-0.218 1.818,-0.814 0.406,-0.552 0.406,-1.482 0.406,-2.151 V -7.384 H 2.239 v 3.968 c 0,0.756 0.102,1.861 -0.974,1.861 -0.378,0 -0.727,-0.219 -0.902,-0.553 C 0.145,-2.529 0.117,-2.951 0.117,-3.416 V -7.384 H -2.02 V 0 Z"
             style="fill:#14662f;fill-opacity:1;fill-rule:nonzero;stroke:none"
             id="path88"
             inkscape:connector-curvature="0" />
        </g>
        <path
           d="m 496.259,389.313 h -2.137 v 7.384 h 2.137 z m 0,8.053 h -2.137 v 2.064 h 2.137 z"
           style="fill:#14662f;fill-opacity:1;fill-rule:nonzero;stroke:none"
           id="path90"
           inkscape:connector-curvature="0" />
        <g
           id="g92"
           transform="translate(501.8854,392.8445)">
          <path
             d="m 0,0 c -0.814,-0.086 -2.312,-0.276 -2.312,-1.351 0,-0.582 0.35,-0.974 0.945,-0.974 0.437,0 0.829,0.232 1.076,0.61 C 0.014,-1.25 0,-0.814 0,-0.291 Z m 0.203,-3.532 c -0.087,0.378 -0.116,0.771 -0.101,1.148 -0.611,-0.872 -1.251,-1.293 -2.355,-1.293 -1.309,0 -2.326,0.698 -2.326,2.093 0,1.091 0.683,1.831 1.657,2.195 0.843,0.32 2.021,0.378 2.922,0.465 L 0,1.25 c 0,0.32 0.029,0.698 -0.19,0.974 -0.188,0.248 -0.551,0.35 -0.872,0.35 -0.683,0 -1.278,-0.35 -1.278,-1.076 l -2.021,0.189 c 0.218,1.787 1.962,2.311 3.518,2.311 0.755,0 1.744,-0.174 2.34,-0.669 C 2.253,2.719 2.18,1.905 2.18,1.018 v -3.445 c 0,-0.378 0.029,-0.742 0.146,-1.105 z"
             style="fill:#14662f;fill-opacity:1;fill-rule:nonzero;stroke:none"
             id="path94"
             inkscape:connector-curvature="0" />
        </g>
        <g
           id="g96"
           transform="translate(403.1028,381.9203)">
          <path
             d="m 0,0 c -0.013,0.966 -0.343,1.869 -1.462,1.869 -1.438,0 -1.578,-1.882 -1.578,-2.937 0,-1.197 0.14,-2.735 1.679,-2.735 0.954,0 1.399,0.801 1.514,1.64 L 2.137,-2.29 c -0.216,-1.997 -1.59,-3.179 -3.599,-3.179 -2.596,0 -3.854,2.111 -3.854,4.49 0,2.416 1.297,4.489 3.917,4.489 2.188,0 3.307,-1.272 3.536,-3.37 z"
             style="fill:#14662f;fill-opacity:1;fill-rule:nonzero;stroke:none"
             id="path98"
             inkscape:connector-curvature="0" />
        </g>
        <g
           id="g100"
           transform="translate(407.9359,380.0123)">
          <path
             d="m 0,0 c 0,-0.738 -0.013,-2.315 1.056,-2.315 1.056,0 1.106,1.272 1.106,2.047 0,0.51 -0.025,1.12 -0.203,1.603 C 1.806,1.755 1.501,1.92 1.069,1.92 0.064,1.92 0,0.738 0,0 m 4.172,-0.255 c 0,-1.844 -1.208,-3.306 -3.116,-3.306 -1.984,0 -3.065,1.5 -3.065,3.371 0,1.882 1.093,3.344 3.065,3.344 2.022,0 3.116,-1.501 3.116,-3.409"
             style="fill:#14662f;fill-opacity:1;fill-rule:nonzero;stroke:none"
             id="path102"
             inkscape:connector-curvature="0" />
        </g>
        <g
           id="g104"
           transform="translate(414.6517,383.0395)">
          <path
             d="m 0,0 v -0.992 h 0.025 c 0.331,0.763 0.954,1.119 1.793,1.119 0.853,0 1.387,-0.356 1.768,-1.119 0.332,0.763 1.082,1.119 1.883,1.119 0.573,0 1.196,-0.204 1.577,-0.661 0.433,-0.509 0.343,-1.247 0.343,-1.896 V -6.462 H 5.52 v 3.422 c 0,0.254 0.026,0.891 -0.038,1.132 C 5.38,-1.501 5.075,-1.386 4.68,-1.386 4.35,-1.386 4.006,-1.577 3.867,-1.882 3.727,-2.187 3.739,-2.697 3.739,-3.04 v -3.422 h -1.87 v 3.422 c 0,0.675 0.128,1.666 -0.839,1.666 -0.979,0 -0.941,-0.967 -0.941,-1.666 v -3.422 h -1.87 V 0 Z"
             style="fill:#14662f;fill-opacity:1;fill-rule:nonzero;stroke:none"
             id="path106"
             inkscape:connector-curvature="0" />
        </g>
        <g
           id="g108"
           transform="translate(424.8783,383.0395)">
          <path
             d="m 0,0 v -0.992 h 0.025 c 0.331,0.763 0.954,1.119 1.793,1.119 0.853,0 1.387,-0.356 1.768,-1.119 0.331,0.763 1.082,1.119 1.883,1.119 0.572,0 1.196,-0.204 1.577,-0.661 0.433,-0.509 0.343,-1.247 0.343,-1.896 V -6.462 H 5.52 v 3.422 c 0,0.254 0.026,0.891 -0.039,1.132 C 5.38,-1.501 5.074,-1.386 4.68,-1.386 4.349,-1.386 4.006,-1.577 3.867,-1.882 3.727,-2.187 3.739,-2.697 3.739,-3.04 v -3.422 h -1.87 v 3.422 c 0,0.675 0.128,1.666 -0.839,1.666 -0.98,0 -0.942,-0.967 -0.942,-1.666 v -3.422 h -1.87 V 0 Z"
             style="fill:#14662f;fill-opacity:1;fill-rule:nonzero;stroke:none"
             id="path110"
             inkscape:connector-curvature="0" />
        </g>
        <g
           id="g112"
           transform="translate(437.1519,376.5779)">
          <path
             d="m 0,0 v 1.106 h -0.025 c -0.305,-0.813 -0.967,-1.233 -1.844,-1.233 -0.65,0 -1.209,0.14 -1.578,0.725 -0.356,0.559 -0.318,1.17 -0.318,1.794 v 4.07 h 1.87 v -4.07 c 0,-0.523 0.05,-1.019 0.712,-1.019 0.42,0 0.776,0.242 0.941,0.624 0.127,0.293 0.102,0.662 0.102,0.992 V 6.462 H 1.73 V 0 Z"
             style="fill:#14662f;fill-opacity:1;fill-rule:nonzero;stroke:none"
             id="path114"
             inkscape:connector-curvature="0" />
        </g>
        <g
           id="g116"
           transform="translate(441.7692,383.0395)">
          <path
             d="m 0,0 v -1.094 h 0.025 c 0.382,0.827 0.916,1.221 1.857,1.221 0.611,0 1.209,-0.191 1.591,-0.712 0.355,-0.483 0.355,-1.297 0.355,-1.883 v -3.994 h -1.87 v 3.473 c 0,0.661 0.09,1.628 -0.851,1.628 -0.332,0 -0.636,-0.191 -0.789,-0.483 C 0.127,-2.214 0.101,-2.582 0.101,-2.989 V -6.462 H -1.768 V 0 Z"
             style="fill:#14662f;fill-opacity:1;fill-rule:nonzero;stroke:none"
             id="path118"
             inkscape:connector-curvature="0" />
        </g>
        <path
           d="m 448.599,376.578 h -1.87 v 6.462 h 1.87 z m 0,7.047 h -1.87 v 1.806 h 1.87 z"
           style="fill:#14662f;fill-opacity:1;fill-rule:nonzero;stroke:none"
           id="path120"
           inkscape:connector-curvature="0" />
        <g
           id="g122"
           transform="translate(449.1961,381.5642)">
          <path
             d="M 0,0 V 1.488 H 1.132 L 1.298,3.383 2.926,3.51 V 1.488 H 4.312 V 0 H 2.926 v -2.57 c 0,-0.75 0,-1.055 0.903,-1.017 l 0.585,0.025 V -4.973 L 4.287,-4.999 C 3.931,-5.05 3.587,-5.113 3.244,-5.113 2.71,-5.113 1.997,-5.037 1.578,-4.694 1.056,-4.261 1.056,-3.485 1.056,-2.85 V 0 Z"
             style="fill:#14662f;fill-opacity:1;fill-rule:nonzero;stroke:none"
             id="path124"
             inkscape:connector-curvature="0" />
        </g>
        <g
           id="g126"
           transform="translate(457.8336,376.9851)">
          <path
             d="m 0,0 c -0.483,-1.463 -0.737,-2.659 -2.569,-2.659 l -0.916,0.077 v 1.463 l 0.941,-0.089 c 0.624,0 0.865,0.19 1.031,0.801 l -2.354,6.461 h 2.023 l 1.233,-3.841 1.183,3.841 h 1.4 z"
             style="fill:#14662f;fill-opacity:1;fill-rule:nonzero;stroke:none"
             id="path128"
             inkscape:connector-curvature="0" />
        </g>
        <g
           id="g130"
           transform="translate(468.7338,381.9203)">
          <path
             d="m 0,0 c -0.012,0.966 -0.343,1.869 -1.463,1.869 -1.436,0 -1.577,-1.882 -1.577,-2.937 0,-1.197 0.141,-2.735 1.679,-2.735 0.954,0 1.399,0.801 1.514,1.64 L 2.137,-2.29 c -0.216,-1.997 -1.589,-3.179 -3.6,-3.179 -2.594,0 -3.853,2.111 -3.853,4.49 0,2.416 1.297,4.489 3.917,4.489 2.188,0 3.307,-1.272 3.536,-3.37 z"
             style="fill:#14662f;fill-opacity:1;fill-rule:nonzero;stroke:none"
             id="path132"
             inkscape:connector-curvature="0" />
        </g>
        <g
           id="g134"
           transform="translate(473.5803,380.0123)">
          <path
             d="m 0,0 c 0,-0.738 -0.013,-2.315 1.056,-2.315 1.055,0 1.106,1.272 1.106,2.047 0,0.51 -0.025,1.12 -0.204,1.603 C 1.806,1.755 1.501,1.92 1.068,1.92 0.063,1.92 0,0.738 0,0 m 4.172,-0.255 c 0,-1.844 -1.208,-3.306 -3.116,-3.306 -1.984,0 -3.066,1.5 -3.066,3.371 0,1.882 1.094,3.344 3.066,3.344 2.022,0 3.116,-1.501 3.116,-3.409"
             style="fill:#14662f;fill-opacity:1;fill-rule:nonzero;stroke:none"
             id="path136"
             inkscape:connector-curvature="0" />
        </g>
        <path
           d="m 478.592,385.304 h 1.869 v -8.726 h -1.869 z"
           style="fill:#14662f;fill-opacity:1;fill-rule:nonzero;stroke:none"
           id="path138"
           inkscape:connector-curvature="0" />
        <path
           d="m 481.695,385.304 h 1.87 v -8.726 h -1.87 z"
           style="fill:#14662f;fill-opacity:1;fill-rule:nonzero;stroke:none"
           id="path140"
           inkscape:connector-curvature="0" />
        <g
           id="g142"
           transform="translate(488.7158,380.5968)">
          <path
             d="M 0,0 C -0.038,0.7 -0.267,1.348 -1.081,1.348 -1.908,1.348 -2.226,0.738 -2.29,0 Z M -2.277,-1.106 -2.29,-1.424 c 0,-0.764 0.433,-1.387 1.247,-1.387 0.572,0 1.145,0.421 1.145,1.018 l 1.73,-0.127 c 0,-0.319 -0.75,-2.226 -2.939,-2.226 -1.933,0 -3.192,1.348 -3.192,3.269 0,1.908 1.132,3.447 3.141,3.447 0.904,0 1.832,-0.407 2.366,-1.145 0.535,-0.738 0.675,-1.653 0.662,-2.531 z"
             style="fill:#14662f;fill-opacity:1;fill-rule:nonzero;stroke:none"
             id="path144"
             inkscape:connector-curvature="0" />
        </g>
        <g
           id="g146"
           transform="translate(493.1802,381.1696)">
          <path
             d="m 0,0 c 0,-0.636 0.407,-0.979 1.03,-0.979 0.611,0 1.119,0.33 1.119,0.991 0,0.65 -0.534,0.955 -1.119,0.955 C 0.432,0.967 0,0.611 0,0 m 0.725,-4.592 -1.005,0.038 c -0.229,-0.089 -0.406,-0.267 -0.406,-0.521 0,-0.305 0.203,-0.445 0.47,-0.521 0.407,-0.115 0.992,-0.128 1.399,-0.128 0.458,0 1.755,-0.038 1.755,0.623 0,0.344 -0.419,0.42 -0.687,0.446 z M 0.064,-1.92 c -0.178,-0.102 -0.318,-0.255 -0.318,-0.471 0,-0.267 0.127,-0.42 0.369,-0.496 0.33,-0.089 1.017,-0.115 1.386,-0.127 l 0.814,-0.038 c 1.132,-0.064 2.404,-0.306 2.404,-1.718 0,-0.865 -0.623,-1.45 -1.361,-1.755 -0.7,-0.292 -1.615,-0.343 -2.379,-0.343 -1.03,0 -3.332,0.038 -3.332,1.5 0,0.662 0.535,1.043 1.119,1.17 -0.496,0.243 -0.826,0.586 -0.826,1.158 0,0.801 0.648,1.17 1.297,1.437 -0.699,0.268 -1.144,0.802 -1.144,1.577 0,1.565 1.704,2.023 2.963,2.023 0.585,0 1.157,-0.089 1.717,-0.28 0.127,0.98 0.496,1.259 1.462,1.259 L 4.757,2.925 V 1.717 C 4.592,1.743 4.426,1.781 4.261,1.781 3.905,1.781 3.562,1.615 3.511,1.221 3.867,0.827 4.019,0.509 4.019,-0.038 c 0,-1.526 -1.64,-1.971 -2.874,-1.971 z"
             style="fill:#14662f;fill-opacity:1;fill-rule:nonzero;stroke:none"
             id="path148"
             inkscape:connector-curvature="0" />
        </g>
        <g
           id="g150"
           transform="translate(502.2996,380.5968)">
          <path
             d="M 0,0 C -0.038,0.7 -0.267,1.348 -1.08,1.348 -1.907,1.348 -2.225,0.738 -2.29,0 Z M -2.277,-1.106 -2.29,-1.424 c 0,-0.764 0.433,-1.387 1.247,-1.387 0.573,0 1.145,0.421 1.145,1.018 l 1.73,-0.127 c 0,-0.319 -0.75,-2.226 -2.939,-2.226 -1.933,0 -3.192,1.348 -3.192,3.269 0,1.908 1.132,3.447 3.141,3.447 0.904,0 1.832,-0.407 2.366,-1.145 0.535,-0.738 0.675,-1.653 0.662,-2.531 z"
             style="fill:#14662f;fill-opacity:1;fill-rule:nonzero;stroke:none"
             id="path152"
             inkscape:connector-curvature="0" />
        </g>
        <g
           id="g154"
           transform="translate(304.7993,373.5331)">
          <path
             d="m 0,0 -8.054,13.124 -2.494,5.069 -0.082,-0.081 0.082,-0.327 c 0.409,-1.799 0.572,-2.78 0.572,-4.702 V 0 h -6.991 v 28.047 h 8.136 L 0.572,12.388 0.654,12.47 0.041,20.238 v 7.809 H 7.032 V 0 Z"
             style="fill:#d3a20c;fill-opacity:1;fill-rule:nonzero;stroke:none"
             id="path156"
             inkscape:connector-curvature="0" />
        </g>
        <g
           id="g158"
           transform="translate(322.6249,387.4341)">
          <path
             d="m 0,0 c 0,-2.699 0.286,-7.891 4.211,-7.891 3.925,0 4.211,5.192 4.211,7.891 0,2.739 -0.409,8.218 -4.211,8.218 C 0.409,8.218 0,2.739 0,0 m 17.621,0.041 c 0,-7.973 -4.906,-14.351 -13.41,-14.351 -8.504,0 -13.41,6.378 -13.41,14.351 0,8.381 4.865,14.514 13.41,14.514 8.545,0 13.41,-6.133 13.41,-14.514"
             style="fill:#d3a20c;fill-opacity:1;fill-rule:nonzero;stroke:none"
             id="path160"
             inkscape:connector-curvature="0" />
        </g>
        <g
           id="g162"
           transform="translate(356.5597,373.5331)">
          <path
             d="m 0,0 h -8.79 l -9.036,28.047 h 9.036 l 4.415,-15.168 0.818,-2.78 0.777,2.657 4.415,15.291 h 7.073 z"
             style="fill:#d3a20c;fill-opacity:1;fill-rule:nonzero;stroke:none"
             id="path164"
             inkscape:connector-curvature="0" />
        </g>
        <g
           id="g166"
           transform="translate(373.7722,385.1851)">
          <path
             d="M 0,0 -2.29,8.136 -4.579,0 Z M 1.472,-6.132 H -6.01 l -1.717,-5.52 h -6.992 l 8.709,28.047 h 9.076 l 8.791,-28.047 H 3.066 Z"
             style="fill:#d3a20c;fill-opacity:1;fill-rule:nonzero;stroke:none"
             id="path168"
             inkscape:connector-curvature="0" />
        </g>
        <g
           id="g170"
           transform="translate(391.3594,401.5799)">
          <path
             d="M 0,0 V -27.983"
             style="fill:none;stroke:#14662f;stroke-width:1.005;stroke-linecap:butt;stroke-linejoin:miter;stroke-miterlimit:10;stroke-dasharray:none;stroke-opacity:1"
             id="path172"
             inkscape:connector-curvature="0" />
        </g>
      </g>
    </g>
  </g>
</svg>
